# xmcd
#
# Track frame offsets: 
#        150
#        13113
#        26596
#        42930
#        56454
#        69588
#        83367
#        95144
#        108573
#        123107
#        139692
#
# Disc length: 1968 seconds
#
# Revision: 0
# Processed by: cddbd v1.5.2PL0 Copyright (c) Steve Scherf et al.
# Submitted via: ExactAudioCopyFreeDBPlugin 1.0
#
DISCID=8a07ae0b
DTITLE=Varios - Música Años 60_70
DYEAR=1900
DGENRE=Pop
TTITLE0=Tge Arcgues - Sugar Sugar
TTITLE1=Ben E. King - Stand By Me
TTITLE2=Bond Street - Sugar Baby Love
TTITLE3=B.J. Thomas - Raindrops Keep Falling In M Head
TTITLE4=Percy Sledge - When A Man Loves A Woman
TTITLE5=Kingston Trio - Where Have All The Flowers Gone
TTITLE6=Herman's Hermits - There's A Kind Of Hush
TTITLE7=The Drifters - On Broadway
TTITLE8=Bond Street - Rock Your Baby
TTITLE9=Gerry and The Pacemakers - Unchained Melody
TTITLE10=Swinging Blues Jeans - Hippy Hippy Shake
EXTD=
EXTT0=
EXTT1=
EXTT2=
EXTT3=
EXTT4=
EXTT5=
EXTT6=
EXTT7=
EXTT8=
EXTT9=
EXTT10=
PLAYORDER=
